<svg xmlns="http://www.w3.org/2000/svg" viewBox="0 0 1600 900" role="img" aria-labelledby="title desc" data-factual-svg="true" data-product-photo="false" data-logo="false" data-to-scale="false" data-colour-proof="false">
  <title id="title">Danitrio Densho factual diagram</title>
  <desc id="desc">Editorial diagram for Danitrio Densho: ebonite eyedropper body, Urushi and Maki-e layers, blind-cap ink-flow control, and DE design numbers. Not a product photograph and not to scale.</desc>
  <rect width="1600" height="900" fill="#211d1a"/>
  <rect x="72" y="66" width="1456" height="768" rx="34" fill="#302823" stroke="#b88b43" stroke-width="4"/>
  <g font-family="-apple-system,BlinkMacSystemFont,'Noto Sans SC','Microsoft YaHei',sans-serif">
    <text x="130" y="148" font-size="52" font-weight="700" fill="#f6e9cb">Danitrio Densho</text>
    <text x="132" y="198" font-size="25" fill="#ddcba6">ebonite ED · Urushi / Maki-e · blind-cap ink flow · DE design numbers · non-photo · not-to-scale</text>
  </g>
  <g transform="translate(125 300)">
    <path d="M86 205 Q86 165 128 142 L880 142 Q940 148 972 180 L972 230 Q940 262 880 268 L128 268 Q86 245 86 205Z" fill="#191614" stroke="#d4a352" stroke-width="7"/>
    <path d="M972 180 Q1035 188 1090 205 Q1035 222 972 230Z" fill="#44251d" stroke="#d4a352" stroke-width="7"/>
    <path d="M1090 205 L1190 205" stroke="#d4a352" stroke-width="10" stroke-linecap="round"/>
    <path d="M86 178 Q42 193 0 205 Q42 217 86 232" fill="#241b18" stroke="#d4a352" stroke-width="6"/>
    <path d="M0 205 L-65 205" stroke="#d4a352" stroke-width="9" stroke-linecap="round"/>
    <path d="M170 148 Q260 118 350 148 M170 262 Q260 292 350 262" fill="none" stroke="#b94b32" stroke-width="8" opacity=".85"/>
    <path d="M420 148 Q510 118 600 148 M420 262 Q510 292 600 262" fill="none" stroke="#d0a24e" stroke-width="8" opacity=".85"/>
    <path d="M670 148 Q760 118 850 148 M670 262 Q760 292 850 262" fill="none" stroke="#e7dfbb" stroke-width="6" opacity=".8"/>
    <circle cx="1090" cy="205" r="18" fill="#d8ad58" stroke="#6b4b1d" stroke-width="4"/>
    <text x="200" y="366" font-family="sans-serif" font-size="28" fill="#f6e9cb">ebonite eyedropper body</text>
    <text x="640" y="366" font-family="sans-serif" font-size="28" fill="#f6e9cb">Urushi / Maki-e layers</text>
    <text x="1010" y="420" font-family="sans-serif" font-size="26" fill="#f6e9cb">blind cap → ink flow</text>
    <path d="M1080 395 L1090 230" stroke="#ddcba6" stroke-width="4"/>
  </g>
  <g transform="translate(150 675)" font-family="sans-serif" font-size="25" fill="#f6e9cb">
    <rect x="0" y="0" width="360" height="78" rx="16" fill="#49342a" stroke="#b88b43" stroke-width="3"/>
    <rect x="400" y="0" width="360" height="78" rx="16" fill="#49342a" stroke="#b88b43" stroke-width="3"/>
    <rect x="800" y="0" width="480" height="78" rx="16" fill="#49342a" stroke="#b88b43" stroke-width="3"/>
    <text x="88" y="49">Hira / Taka</text>
    <text x="468" y="49">Togidashi / Shishiai</text>
    <text x="880" y="49">DE-103 · DE-106 · DE-122…</text>
  </g>
  <text x="130" y="800" font-family="sans-serif" font-size="22" fill="#ddcba6">示意图只表达资料关系；不证明真实比例、颜色、艺师、编号总量、库存或价格。</text>
</svg>
